<?xml version="1.0" encoding="UTF-8"?>
<svg id="Laag_1" xmlns="http://www.w3.org/2000/svg" version="1.1" viewBox="0 0 841.9 595.3">
  <!-- Generator: Adobe Illustrator 29.5.1, SVG Export Plug-In . SVG Version: 2.1.0 Build 141)  -->
  <defs>
    <style>
      .st0 {
        fill: #1d1d1b;
      }

      .st1 {
        fill: #eb5b25;
      }

      .st2 {
        fill: #243588;
      }
    </style>
  </defs>
  <path class="st1" d="M172.2,284.1c-4.6,0-8.9-.8-12.9-2.5-4-1.7-7.4-4-10.3-6.9-2.9-2.9-5.2-6.3-6.9-10.3-1.7-4-2.5-8.2-2.5-12.9v-32.6h6.5v32.6c0,3.6.7,6.9,2.1,10.1,1.4,3.2,3.3,5.9,5.6,8.3,2.3,2.3,5.1,4.2,8.3,5.6,3.2,1.4,6.5,2.1,10.1,2.1s6.9-.7,10.1-2.1c3.2-1.4,5.9-3.3,8.3-5.6,2.3-2.3,4.2-5.1,5.6-8.3,1.4-3.2,2.1-6.5,2.1-10.1v-32.6h6.5v32.6c0,3.6.7,6.9,2.1,10.1,1.4,3.2,3.3,5.9,5.6,8.3,2.3,2.3,5.1,4.2,8.3,5.6,3.2,1.4,6.5,2.1,10.1,2.1s6.9-.7,10.1-2.1c3.2-1.4,5.9-3.3,8.3-5.6,2.3-2.3,4.2-5.1,5.6-8.3,1.4-3.2,2.1-6.5,2.1-10.1v-32.6h6.5v32.6c0,4.6-.9,8.9-2.6,12.9-1.7,4-4.1,7.4-7.1,10.3-3,2.9-6.5,5.2-10.4,6.9-3.9,1.7-8.1,2.5-12.5,2.5s-6.4-.5-9.4-1.4c-3-.9-5.7-2.2-8.2-3.8-2.5-1.7-4.8-3.6-6.8-5.8-2-2.2-3.7-4.6-5-7.2-1.3,2.6-3,5-5,7.2-2,2.2-4.4,4.2-6.9,5.8-2.6,1.7-5.3,2.9-8.3,3.8-3,.9-6,1.4-9.1,1.4"/>
  <path class="st2" d="M271.4,218.8h6.5v65.2h-6.5v-65.2ZM271.4,207.1h6.5v6.5h-6.5v-6.5Z"/>
  <path class="st2" d="M293.3,251.5c0,3.6.7,6.9,2.1,10.1,1.4,3.2,3.3,5.9,5.6,8.3,2.3,2.4,5.1,4.2,8.3,5.6,3.2,1.4,6.5,2.1,10.1,2.1s6.9-.7,10.1-2.1c3.2-1.4,5.9-3.3,8.3-5.6,2.3-2.3,4.2-5.1,5.6-8.3,1.4-3.2,2.1-6.5,2.1-10.1s-.7-6.9-2.1-10.1c-1.4-3.2-3.3-5.9-5.6-8.3-2.3-2.3-5.1-4.2-8.3-5.6-3.2-1.4-6.5-2.1-10.1-2.1s-6.9.7-10.1,2.1c-3.2,1.4-5.9,3.3-8.3,5.6-2.3,2.3-4.2,5.1-5.6,8.3-1.4,3.2-2.1,6.5-2.1,10.1M286.8,251.5c0-4.5.8-8.8,2.5-12.8,1.7-4,4-7.5,6.9-10.4,2.9-2.9,6.3-5.2,10.3-6.9,4-1.7,8.2-2.5,12.9-2.5s10.1,1.2,14.7,3.6c4.6,2.4,8.4,5.5,11.4,9.5v-25.6h6.5v45.1c0,4.6-.8,8.9-2.5,12.9-1.7,4-4,7.4-6.9,10.3-2.9,2.9-6.4,5.2-10.4,6.9-4,1.7-8.3,2.5-12.8,2.5s-8.9-.8-12.9-2.5c-4-1.7-7.4-4-10.3-6.9-2.9-2.9-5.2-6.3-6.9-10.3-1.7-4-2.5-8.2-2.5-12.9"/>
  <path class="st2" d="M392.4,225.4c-3.3,0-6.4.6-9.3,1.8-2.9,1.2-5.5,2.8-7.9,4.8-2.3,2-4.3,4.4-5.8,7.2-1.5,2.8-2.5,5.9-3.1,9.1h52.2c-.5-3.2-1.5-6.2-3.1-9.1-1.5-2.8-3.5-5.2-5.8-7.2-2.3-2-5-3.6-8-4.8-3-1.2-6-1.8-9.3-1.8M392.4,277.6c5.6,0,10.5-1.5,14.7-4.4,4.3-3,7.4-6.9,9.4-11.9h7.2c-1.1,3.3-2.7,6.4-4.8,9.1-2,2.8-4.4,5.2-7.2,7.2-2.7,2-5.8,3.6-9.1,4.8-3.3,1.2-6.7,1.8-10.3,1.8s-8.9-.8-12.9-2.5c-4-1.7-7.4-4-10.3-6.9-2.9-2.9-5.2-6.3-6.9-10.3-1.7-4-2.5-8.2-2.5-12.9s.8-8.8,2.5-12.8c1.7-4,4-7.5,6.9-10.4,2.9-2.9,6.3-5.2,10.3-6.9,4-1.7,8.2-2.5,12.9-2.5s8.8.8,12.8,2.5c4,1.7,7.5,4,10.4,6.9,2.9,2.9,5.2,6.4,6.9,10.4,1.7,4,2.5,8.3,2.5,12.8v3.3h-58.7c.5,3.3,1.5,6.4,3.1,9.1,1.5,2.8,3.5,5.2,5.8,7.2,2.3,2,5,3.6,7.9,4.8,2.9,1.2,6,1.8,9.3,1.8"/>
  <path class="st2" d="M524.2,218.8c4.5,0,8.8.8,12.8,2.5,4,1.7,7.5,4,10.4,6.9,2.9,2.9,5.2,6.4,6.9,10.4,1.7,4,2.5,8.3,2.5,12.8v32.6h-6.5v-32.6c0-3.6-.7-6.9-2.1-10.1-1.4-3.2-3.3-5.9-5.6-8.3-2.3-2.3-5.1-4.2-8.3-5.6-3.2-1.4-6.5-2.1-10.1-2.1s-6.9.7-10.1,2.1c-3.2,1.4-5.9,3.3-8.3,5.6-2.3,2.3-4.2,5.1-5.6,8.3-1.4,3.2-2.1,6.5-2.1,10.1v32.6h-6.5v-32.6c0-3.6-.7-6.9-2.1-10.1-1.4-3.2-3.3-5.9-5.6-8.3-2.3-2.3-5.1-4.2-8.3-5.6-3.2-1.4-6.5-2.1-10.1-2.1s-6.9.7-10.1,2.1c-3.2,1.4-5.9,3.3-8.3,5.6-2.3,2.3-4.2,5.1-5.6,8.3-1.4,3.2-2.1,6.5-2.1,10.1v32.6h-6.5v-32.6c0-4.5.9-8.8,2.6-12.8,1.7-4,4.1-7.5,7.1-10.4,3-2.9,6.5-5.2,10.4-6.9,3.9-1.7,8.1-2.5,12.5-2.5s6.3.5,9.3,1.4c3,.9,5.8,2.2,8.3,3.8,2.5,1.7,4.8,3.6,6.8,5.8,2,2.2,3.7,4.6,5,7.2,1.3-2.6,3-5,5-7.2,2-2.2,4.3-4.2,6.9-5.8,2.6-1.7,5.3-2.9,8.3-3.8,3-.9,6-1.4,9.1-1.4"/>
  <path class="st2" d="M597.3,225.4c-3.3,0-6.4.6-9.3,1.8-2.9,1.2-5.5,2.8-7.9,4.8-2.3,2-4.3,4.4-5.8,7.2-1.5,2.8-2.5,5.9-3.1,9.1h52.2c-.5-3.2-1.5-6.2-3.1-9.1-1.5-2.8-3.5-5.2-5.8-7.2-2.3-2-5-3.6-8-4.8-3-1.2-6-1.8-9.3-1.8M597.3,277.6c5.6,0,10.5-1.5,14.7-4.4,4.3-3,7.4-6.9,9.4-11.9h7.2c-1.1,3.3-2.7,6.4-4.8,9.1-2,2.8-4.4,5.2-7.2,7.2-2.7,2-5.8,3.6-9.1,4.8-3.3,1.2-6.7,1.8-10.3,1.8s-8.9-.8-12.9-2.5c-4-1.7-7.4-4-10.3-6.9-2.9-2.9-5.2-6.3-6.9-10.3-1.7-4-2.5-8.2-2.5-12.9s.8-8.8,2.5-12.8c1.7-4,4-7.5,6.9-10.4,2.9-2.9,6.3-5.2,10.3-6.9,4-1.7,8.2-2.5,12.9-2.5s8.8.8,12.8,2.5c4,1.7,7.5,4,10.4,6.9,2.9,2.9,5.2,6.4,6.9,10.4,1.7,4,2.5,8.3,2.5,12.8v3.3h-58.7c.5,3.3,1.5,6.4,3.1,9.1,1.5,2.8,3.5,5.2,5.8,7.2,2.3,2,5,3.6,7.9,4.8,2.9,1.2,6,1.8,9.3,1.8"/>
  <path class="st0" d="M635.6,212.9c0,.1,0,.2-.2.2s-.2,0-.2-.2,0-.2.2-.2.2,0,.2.2"/>
  <path class="st0" d="M638.5,212.9c0,.1,0,.2-.2.2s-.2,0-.2-.2,0-.2.2-.2.2,0,.2.2"/>
  <path class="st1" d="M690.1,218.9l-26,26-26-26h52ZM727.9,214.7v-2.2h-121.7v6.4h0c0,0,18.1,0,18.1,0h4.7l30.6,30.6-30.7,30.7,4.6,4.6,30.7-30.7,30.7,30.7,4.6-4.6-30.7-30.7,30.6-30.6h13.9v-4.3h14.8Z"/>
  <path class="st2" d="M698.9,321.6h1.1v-20h-1.1v20ZM657.7,319c-1.1,1.1-2.5,1.7-4,1.7s-2.9-.6-4-1.7c-1.1-1.1-1.7-2.4-1.7-4s.6-2.9,1.7-4c1.1-1.1,2.4-1.7,4-1.7s2.9.6,4,1.7c.8.8,1.4,1.8,1.6,2.9v2.2c-.2,1.1-.7,2.1-1.6,2.9M660.4,309.3h-1.1v1.7c-.2-.3-.5-.6-.7-.8-1.3-1.3-3-2-4.9-2s-3.5.7-4.8,2c-1.3,1.3-2,3-2,4.9s.7,3.5,2,4.8c1.3,1.3,3,2,4.8,2s3.5-.7,4.9-2c.3-.3.5-.5.7-.8v2.5h1.1v-12.3ZM601.1,310.8c.8-.7,1.6-1.1,2.7-1.1s1.9.4,2.7,1.1c.8.7,1.1,1.6,1.1,2.7v8.1h1.1v-8.2c0-1.4-.5-2.5-1.4-3.4s-2.1-1.4-3.5-1.4-2.5.5-3.6,1.5v-.8h-1.1v12.3h1.1v-9.5c.2-.4.5-.9.9-1.3M554.1,309.4c1.6,0,2.9.6,4,1.7,1.1,1.1,1.7,2.5,1.7,4s-.6,2.9-1.7,4c-1.1,1.1-2.4,1.7-4,1.7s-2.9-.6-4-1.7c-1.1-1.1-1.7-2.4-1.7-4s.6-2.9,1.7-4c1.1-1.1,2.4-1.7,4-1.7M549.3,310.2c-1.3,1.3-2,3-2,4.9s.7,3.5,2,4.8c1.3,1.3,3,2,4.9,2s3.5-.7,4.9-2,2-3,2-4.8-.7-3.5-2-4.9c-1.3-1.3-3-2-4.9-2s-3.5.7-4.9,2M508.3,304.9c-.3,0-.6.1-.8.3-.2.2-.3.5-.3.8s.1.6.3.8c.2.2.5.3.8.3s.6-.1.8-.3c.2-.2.3-.5.3-.8s-.1-.6-.3-.8c-.2-.2-.5-.3-.8-.3M507.8,321.6h1.1v-12.3h-1.1v12.3ZM463.8,309.3v1.1h2.5v11.2h1.1v-11.2h2.5v-1.1h-2.5v-5.2h-1.1v5.2h-2.5ZM423.7,319c-1.1,1.1-2.5,1.7-4,1.7s-2.9-.6-4-1.7c-1.1-1.1-1.7-2.4-1.7-4s.6-2.9,1.7-4c1.1-1.1,2.4-1.7,4-1.7s2.9.6,4,1.7c.8.8,1.4,1.8,1.6,2.9v2.2c-.2,1.1-.7,2.1-1.6,2.9M426.4,309.3h-1.1v1.7c-.2-.3-.5-.6-.7-.8-1.3-1.3-3-2-4.9-2s-3.5.7-4.8,2c-1.3,1.3-2,3-2,4.9s.7,3.5,2,4.8c1.3,1.3,3,2,4.8,2s3.5-.7,4.9-2c.3-.3.5-.5.7-.8v2.5h1.1v-12.3ZM367.1,310.8c.8-.7,1.6-1.1,2.7-1.1s1.9.4,2.7,1.1c.8.7,1.1,1.6,1.1,2.7v8.1h1.1v-8.2c0-1.4-.5-2.5-1.4-3.4-.9-.9-2.1-1.4-3.5-1.4s-2.5.5-3.6,1.5v-.8h-1.1v12.3h1.1v-9.5c.2-.4.5-.9.9-1.3M327.4,309.2c-1.5.6-2.4,1.5-2.9,2.8v-2.7h-1.1v12.3h1.1v-7.1c0-.9.4-1.8,1.2-2.7.8-.9,1.6-1.4,2.4-1.5l-.6-1.1ZM286.1,314.4c0-1.6-.6-3-1.8-4.2-1.3-1.3-3-2-4.9-2s-3.5.7-4.8,2c-1.3,1.3-2,3-2,4.9s.7,3.5,2,4.8c1.3,1.3,3,2,4.8,2s3.5-.7,4.9-2c.5-.4.8-.8.9-1l-1.2-.4c-.2.2-.3.4-.5.6-1.1,1.1-2.5,1.7-4,1.7s-2.9-.6-4-1.7c-1.1-1.1-1.7-2.4-1.7-4s0-.4,0-.6h12.3ZM275.4,311c1.1-1.1,2.5-1.7,4-1.7s2.9.6,4,1.7c.6.6,1.1,1.4,1.3,2.2h-10.8c.3-.8.7-1.6,1.4-2.2M229.6,309.3v1.1h2.5v11.2h1.1v-11.2h2.5v-1.1h-2.5v-5.2h-1.1v5.2h-2.5ZM184.4,310.8c.8-.7,1.6-1.1,2.7-1.1s1.9.4,2.7,1.1c.8.7,1.1,1.6,1.1,2.7v8.1h1.1v-8.2c0-1.4-.5-2.5-1.4-3.4-.9-.9-2.1-1.4-3.5-1.4s-2.5.5-3.6,1.5v-.8h-1.1v12.3h1.1v-9.5c.2-.4.5-.9.9-1.3M143.1,304.9c-.3,0-.6.1-.8.3-.2.2-.3.5-.3.8s.1.6.3.8c.2.2.5.3.8.3s.6-.1.8-.3c.2-.2.3-.5.3-.8s-.1-.6-.3-.8c-.2-.2-.5-.3-.8-.3M142.5,321.6h1.1v-12.3h-1.1v12.3Z"/>
</svg>