<svg xmlns="http://www.w3.org/2000/svg" width="4187" height="2288" viewBox="0 0 4187 2288" fill="none"><path d="M554.737 1612.83C555.573 1612.83 556.445 1612.96 557.269 1612.83L1033.27 1845.77C1033.27 1844.08 1033.27 1842.4 1033.27 1840.7L1205.44 1453.32C1206.29 1453.32 1207.13 1453.32 1207.97 1453.32L1813.09 1471.04L2851.18 139.262C2847.81 138.434 2844.53 136.72 2841.07 136.72L2798.01 93.6822C2792.97 94.3562 2788.34 88.3481 2790.27 83.6303C2792.23 78.9125 2799.73 77.9111 2802.83 81.955C2805.95 85.9796 2803.11 93.6822 2798.01 93.6822L3111.97 -0.000175549C3112.31 5.045 3111.62 10.148 3111.97 15.1932L3132.23 331.672C3131.4 329.997 3130.53 328.302 3129.68 326.608L3073.99 283.569C3065.56 286.092 3057.47 290.059 3051.21 296.24L1919.44 1638.14C1921.29 1638.14 1917.71 1633.96 1916.91 1635.62L1278.87 1612.83C1278.02 1613.68 1277.18 1614.52 1276.33 1615.36L1101.63 2010.34C1096.44 2010 1091.62 2005.41 1091.51 2000.21L618.037 1762.21C614.553 1761.21 610.596 1762.32 607.908 1764.74C541.758 1824.88 475.607 1885.02 409.457 1945.16C386.068 1966.42 332.276 2038.68 303.43 1993.88C277.793 1954.06 356.498 1880.62 379.038 1850.18C418.764 1796.52 458.494 1742.85 498.22 1689.18C504.488 1680.72 543.969 1612.83 554.737 1612.83Z" fill="#DEF249"></path><path d="M1511.33 956.157C1522.15 956.624 1533.14 956.024 1543.73 958.397C1567.71 963.77 1586.06 983.744 1597.15 1005.68C1608.26 1027.6 1613.61 1051.9 1621.67 1075.12C1643.58 1138.09 1686.17 1195.01 1691.65 1261.45C1695.35 1306.44 1681.47 1350.8 1667.77 1393.8C1664.59 1403.73 1661.34 1413.85 1655.27 1422.33C1649.19 1430.8 1639.74 1437.53 1629.31 1437.65C1623.07 1437.72 1616.31 1434.86 1613.85 1429.13C1611.99 1424.86 1612.83 1419.97 1613.7 1415.41C1620.02 1382.13 1626.35 1348.85 1632.67 1315.58C1636.35 1296.18 1640.06 1276.38 1637.54 1256.8C1635.77 1242.96 1630.95 1229.72 1625.81 1216.74C1615.15 1189.86 1602.99 1163.57 1589.41 1138.05C1587.18 1133.89 1583.71 1129.1 1579.06 1129.84C1556.38 1150.01 1548.73 1181.98 1531.15 1206.72C1523.18 1217.93 1513.22 1227.57 1503.29 1237.1C1475.09 1264.13 1440.91 1285.76 1417.77 1317.24C1361.43 1393.88 1331.65 1415.96 1311.4 1398.42C1309.45 1389.13 1314.89 1380.04 1320.1 1372.09C1340.18 1341.44 1360.31 1310.7 1383.71 1282.49C1397.23 1266.21 1411.9 1250.68 1422.63 1232.44C1434.77 1211.82 1441.43 1188.49 1446.91 1165.21C1461.42 1103.7 1468.55 1040.45 1468.11 977.264C1467.89 944.864 1487.82 955.17 1511.33 956.157Z" fill="#456D86"></path><path d="M1321.77 1398.76C1345.18 1407.85 1367.58 1419.53 1388.43 1433.52C1391.7 1435.7 1395.34 1439.04 1394.25 1442.81C1392.94 1447.25 1386.75 1447.33 1382.18 1446.56C1364.34 1443.58 1346.26 1442.06 1328.17 1442.01C1314.91 1441.98 1295.67 1447.6 1284.51 1438.21C1276.37 1431.37 1274.73 1419.3 1279.38 1410.05C1287.82 1393.28 1306.44 1392.81 1321.77 1398.76Z" fill="#D8CBB5"></path><path d="M1622.57 1410.38C1635.63 1408.3 1648.22 1415.77 1658.73 1423.82C1667.78 1430.76 1676.3 1438.36 1684.26 1446.52C1686.61 1448.9 1688.98 1451.49 1689.82 1454.73C1690.67 1457.97 1689.43 1462.01 1686.29 1463.17C1684.77 1463.73 1683.09 1463.56 1681.47 1463.36C1656.87 1460.34 1627.87 1457.24 1604.93 1447.4C1577.97 1435.84 1603.47 1413.42 1622.57 1410.38Z" fill="#D8CBB5"></path><path d="M1548.97 734.449C1562.09 744.929 1573.14 757.983 1587.1 767.343C1616.5 787.063 1655.46 787.703 1689.34 777.436C1723.22 767.169 1753.19 747.223 1782.62 727.543C1796.81 732.756 1797.15 754.263 1787.54 765.916C1777.94 777.583 1762.81 782.756 1749.67 790.223C1734.61 798.796 1721.74 810.769 1707.07 820.009C1675.09 840.196 1634.61 846.409 1598.03 836.743C1612.11 898.556 1624.18 960.836 1634.23 1023.44C1623.53 1008.45 1609.91 991.903 1591.5 992.076C1586.09 992.129 1580.79 993.703 1575.39 994.209C1564.7 995.183 1553.93 991.903 1543.26 993.089C1535.22 993.969 1527.67 997.329 1520.53 1001.12C1483.41 1020.73 1449.95 1053.49 1407.97 1053.89C1389.09 1054.06 1370.77 1047.38 1353.93 1038.84C1364.5 1016.02 1381.07 996.623 1395.45 975.983C1409.82 955.343 1422.46 932.143 1423.27 906.996C1406.58 913.569 1385.35 901.303 1382.7 883.569C1381.47 875.343 1383.7 867.036 1385.97 859.036C1396.5 821.956 1408.47 785.289 1421.85 749.129C1443.87 689.649 1507.13 701.023 1548.97 734.449Z" fill="#F2F2F2"></path><path d="M1502.96 621.117C1513.74 618.877 1525.69 621.65 1533.65 629.263C1541.47 636.757 1544.73 647.717 1547.45 658.21C1551.5 673.85 1554.21 692.877 1542.57 704.077C1541.15 705.423 1539.5 706.73 1539.02 708.61C1538.62 710.17 1539.1 711.797 1539.56 713.343C1542.57 723.623 1544.31 734.29 1544.74 744.997C1545.01 752.037 1542.55 761.37 1535.53 761.41C1532.79 761.423 1530.35 759.863 1528.07 758.37C1519.17 752.477 1510.25 746.583 1501.33 740.677C1494.18 735.957 1486.92 731.13 1481.53 724.477C1475.6 717.157 1472.29 708.103 1469.31 699.17C1466.1 689.503 1463.1 679.543 1463.34 669.357C1463.85 648.37 1482.33 625.397 1502.96 621.117Z" fill="#FFD9B2"></path><path d="M1490.29 597.209C1498.37 594.783 1507.37 594.463 1515.05 597.943C1519.69 600.049 1523.87 603.729 1525.31 608.609C1526.75 613.489 1524.75 619.516 1520.11 621.583C1518.35 622.369 1516.38 622.569 1514.65 623.396C1510.26 625.489 1508.63 631.023 1508.9 635.876C1509.15 640.729 1510.81 645.449 1510.87 650.316C1510.94 654.329 1509.53 658.849 1505.9 660.569C1502.77 662.036 1499.13 660.996 1495.7 660.583C1492.26 660.169 1488.02 660.929 1486.79 664.169C1485.67 667.169 1487.85 670.276 1489.29 673.129C1491.77 678.063 1492.18 683.983 1490.41 689.196C1488.09 696.036 1458.21 679.769 1455.38 677.463C1445.55 669.489 1437.79 657.516 1436.55 644.703C1434.27 620.876 1470.94 603.009 1490.29 597.209Z" fill="#3E515C"></path><path d="M1503.49 821.771C1493.74 838.918 1480.15 853.584 1469.7 870.291C1469.05 871.344 1468.39 872.718 1469.1 873.745C1469.63 874.531 1470.71 874.678 1471.66 874.758C1486.78 876.051 1501.89 877.331 1517.01 878.624C1517.7 878.678 1518.43 878.731 1519.05 878.398C1519.7 878.024 1520.05 877.291 1520.34 876.584C1528.78 856.411 1525.15 833.451 1527.85 811.745C1529.65 797.291 1535.18 784.771 1540.53 771.558C1525.73 768.331 1518.77 760.358 1515.34 777.945C1512.23 793.798 1511.82 807.104 1503.49 821.771Z" fill="#2C786F"></path><path d="M1451.23 1020.22C1474.19 1006.61 1497.17 992.996 1520.14 979.383C1522.26 978.129 1524.47 976.796 1525.82 974.716C1527.79 971.676 1527.5 967.743 1527.14 964.129C1525.46 947.289 1523.78 930.463 1522.1 913.636C1506.93 912.183 1491.83 910.009 1476.87 907.156C1451.27 902.276 1453.78 922.583 1452.83 940.009C1451.35 967.223 1446.42 992.876 1451.23 1020.22Z" fill="#2C786F"></path><path d="M1786.78 699.703C1783.35 709.969 1786.38 721.689 1792.93 730.316C1798.79 738.036 1808.51 743.849 1817.98 741.769C1830.29 739.063 1836.34 724.983 1837.71 712.463C1838.35 706.556 1838.35 700.343 1835.82 694.983C1826.18 674.529 1793.63 679.143 1786.78 699.703Z" fill="#FFD9B2"></path><path d="M1880.72 694.095C1870.43 701.046 1857.37 710.724 1847.53 707.979C1813.62 698.526 1871.51 671.132 1879.74 666.872C1904.83 653.878 1929.9 640.884 1954.96 627.889C2033.19 587.365 2111.38 546.841 2189.58 506.317C2281.16 458.868 2372.73 411.424 2464.29 363.969C2540.4 324.533 2616.52 285.098 2692.63 245.643C2724.44 229.172 2756.23 212.682 2788.04 196.211C2797.34 178.31 2822.64 176.728 2842.18 181.754C2880.92 191.731 2913.37 217.445 2944.57 242.499C2977.85 269.229 3011.13 295.978 3044.43 322.708C3051.52 328.43 3059.15 334.981 3060.58 343.997C3061.72 351.226 3058.49 358.529 3054.04 364.346C3043.79 377.805 3027.07 385.372 3010.24 387.142C2993.41 388.911 2976.4 385.391 2960.4 379.913C2893.03 356.816 2842.88 301.474 2791.19 252.476C2782.68 244.419 2772.85 239.017 2761.15 239.017C2754.58 239.017 2742.27 248.749 2736.64 251.647C2714.14 263.262 2691.63 274.876 2669.12 286.49C2595.08 324.684 2521.07 362.878 2447.05 401.071C2357.73 447.152 2268.41 493.239 2179.09 539.323C2102.54 578.819 2025.98 618.318 1949.44 657.816C1929.13 668.291 1908.82 678.769 1888.51 689.244C1886.21 690.432 1883.56 692.158 1880.72 694.095Z" fill="#E7F2DC"></path><path d="M1784.33 736.13C1786.02 739.49 1790.51 741.837 1789.86 745.543C1789.06 750.103 1781.55 750.223 1779.74 754.477C1743.86 781.383 1707.97 808.303 1672.09 835.21C1614.35 878.517 1556.62 921.81 1498.87 965.117C1489.81 971.93 1480.73 978.73 1471.66 985.53C1469.11 987.436 1461.15 995.823 1457.89 995.863C1448.27 996.01 1456.47 988.41 1460.53 985.343C1465.97 981.237 1471.33 977.037 1476.73 972.877C1527.55 933.757 1578.39 894.623 1629.22 855.503C1677.07 818.676 1724.91 781.85 1772.77 745.023C1773.39 744.543 1784.51 736.516 1784.33 736.13Z" fill="#E7F2DC"></path><path d="M1558.78 867.224C1551.35 869.517 1543.71 871.931 1537.82 876.971C1531.91 882.024 1528.18 890.451 1530.91 897.704C1534.38 906.931 1545.77 909.944 1555.57 910.904C1559.75 911.317 1563.95 911.584 1568.17 911.704C1571.02 911.784 1573.93 911.797 1576.69 911.024C1584.27 908.904 1589.25 900.744 1588.95 892.877C1588.67 885.011 1583.85 877.771 1577.42 873.211C1570.99 868.651 1563.14 866.504 1555.31 865.584" fill="#FFD9B2"></path><path d="M4.80078 2282.42L577.905 1609.41L1046.37 1826.17C1046.37 1826.17 1172.22 1494.05 1200.19 1466.09C1228.16 1438.12 1707.1 1466.09 1707.1 1466.09C1707.1 1466.09 1672.02 1419.93 1643.59 1428.81C1615.15 1437.71 1609.82 1444.32 1609.82 1427.68C1609.82 1411.05 1643.59 1297.32 1643.59 1260C1643.59 1222.68 1565.38 1107.17 1565.38 1107.17C1565.38 1107.17 1526.3 1190.69 1515.63 1219.13C1504.97 1247.56 1372.58 1387.05 1361.03 1398.61C1359.59 1400.05 1357.53 1401.05 1355.02 1401.7C1337.53 1406.29 1298.16 1393.94 1293.49 1398.61C1288.16 1403.94 1276.94 1438.92 1284.61 1446.58C1292.28 1454.26 1422.34 1459.92 1407.23 1444.81C1392.12 1429.7 1311.27 1407.49 1311.27 1387.95C1311.27 1368.4 1417.9 1249.33 1432.11 1203.13C1446.32 1156.92 1458.76 1052.08 1458.76 1052.08C1458.76 1052.08 1485.87 997.918 1521.42 981.919C1556.96 965.933 1583.15 1009.43 1583.15 1009.43C1583.15 1009.43 1600.04 978.332 1591.15 956.998C1582.27 935.677 1575.16 917.905 1579.6 878.812C1584.05 839.722 1588.04 778.848 1576.94 789.957C1565.83 801.063 1578.71 818.393 1604.48 828.169C1630.26 837.944 1658.69 843.273 1677.35 837.055C1696 830.833 1787.53 773.891 1787.53 761.934C1787.53 749.978 1782.19 734.87 1782.19 722.428C1782.19 709.988 1805.74 669.556 1825.74 689.551C1845.72 709.543 1817.74 757.075 1807.07 746.421C1796.42 735.759 1798.19 710.879 1798.19 717.985C1798.19 725.098 1688.01 789.957 1664.02 783.736C1640.03 777.515 1593.82 747.313 1572.5 739.316C1551.18 731.316 1540.51 722.428 1540.51 726.873C1540.51 731.316 1538.94 770.134 1530.74 761.934C1522.54 753.734 1492.53 725.984 1492.53 730.425C1492.53 734.87 1526.3 760.632 1507.63 807.732C1492.06 847.04 1483.91 845.486 1470.27 870.8C1467.58 875.785 1464.66 881.852 1461.43 889.479C1441.88 935.677 1437.44 1027.2 1437.44 1027.2C1437.44 1027.2 1443.66 938.345 1449.88 898.357C1456.1 858.37 1454.32 816.615 1457.89 816.615C1461.43 816.615 1486.31 808.618 1486.31 801.508C1486.31 794.4 1459.66 778.404 1462.31 775.739C1464.99 773.071 1484.52 754.41 1484.52 745.534C1484.52 736.648 1489.86 718.876 1476.52 718.876C1463.2 718.876 1438.78 724.653 1429.44 733.981C1420.11 743.314 1384.12 844.165 1393.9 877.918C1403.67 911.692 1522.3 920.133 1525.4 917.026C1528.51 913.904 1528.96 883.253 1540.51 883.253C1552.07 883.253 1595.6 873.478 1595.6 898.357C1595.6 923.237 1534.3 911.692 1541.4 904.571C1548.51 897.466 1575.16 892.131 1561.83 894.811C1548.51 897.466 1433.88 864.589 1433.88 853.927C1433.88 843.273 1475.49 784.209 1487.19 761.934C1498.92 739.647 1482.75 709.101 1480.09 706.431C1477.42 703.769 1441.88 670.89 1446.32 645.126C1450.78 619.357 1486.31 590.478 1506.74 594.032C1527.19 597.584 1534.74 609.137 1521.86 617.579C1508.96 626.023 1499.19 622.913 1501.86 630.91C1504.52 638.907 1503.19 650.905 1499.63 654.459C1496.08 658.013 1496.98 666.891 1496.98 666.891C1496.98 666.891 1485.42 649.127 1480.98 658.894C1476.52 668.67 1486.75 680.218 1495.19 680.218C1503.63 680.218 1462.75 693.991 1462.75 660.67C1462.75 627.354 1487.19 599.365 1510.74 605.583C1534.3 611.804 1543.18 627.801 1548.95 645.126C1554.73 662.446 1560.94 696.661 1547.18 702.433C1533.4 708.212 1508.08 701.546 1508.08 704.658C1508.08 707.768 1555.91 719.169 1555.91 753.521C1555.91 787.883 1532.22 786.693 1532.22 786.693C1532.22 786.693 1514.44 898.065 1527.47 947.812C1540.51 997.584 1578.42 1011.8 1565.38 998.758C1552.35 985.733 1494.9 996.985 1469.42 1022.45C1443.95 1047.93 1461.12 1058 1412.56 1058C1363.99 1058 1327.26 1041.41 1343.84 1024.83C1360.43 1008.24 1409 915.826 1409 915.826C1409 915.826 1453.85 937.158 1489.56 937.158C1525.28 937.158 1554.49 939.812 1573.68 951.371C1592.9 962.945 1651.03 1059.57 1647.9 1050.63C1610.39 943.479 1596.23 829.551 1589.08 842.384C1581.95 855.21 1606.86 996.384 1628.18 1050.89C1649.5 1105.39 1711.11 1202.53 1711.11 1242.81C1711.11 1283.1 1670.83 1398.09 1670.83 1415.79C1670.83 1433.48 1643.07 1451.32 1668.46 1451.32C1693.86 1451.32 1812.99 1453.69 1812.99 1453.69L2869.78 141.019L2808.16 88.8948L3132.77 5.96782L3146.98 295.037L3106.71 261.864C3106.71 261.864 3080.65 335.317 3059.32 335.317C3038 335.317 2751.29 171.827 2820.01 171.827C2888.72 171.827 3151.73 382.707 3049.84 361.381C2947.95 340.063 2808.16 176.566 2791.59 193.156C2774.99 209.738 1815.37 707.323 1815.37 707.323C1815.37 707.323 1526.3 911.093 1469.42 984.546C1412.56 1058 1419.67 1086.44 1393.6 1159.89C1367.54 1233.33 1372.29 1190.69 1263.29 1235.7C1154.29 1280.73 1214.71 1407.49 1227.74 1420.52C1240.78 1433.56 1355.7 1387.34 1341.49 1278.36C1327.26 1169.36 1282.24 1204.91 1313.04 1133.81C1343.84 1062.73 1598.47 899.08 1642.39 866.074C1686.32 833.074 1850.91 707.323 1850.91 707.323C1850.91 707.323 2756.51 235.8 2774.99 235.8C2793.46 235.8 2898.2 356.645 2964.53 385.082C3030.88 413.508 3104.35 356.645 3049.84 377.971C2995.34 399.3 1933.83 1638.52 1933.83 1638.52L1308.31 1600.6C1308.31 1600.6 1131.12 2021.57 1114.01 2004.46C1096.9 1987.36 640.12 1738.02 616.43 1738.02C592.735 1738.02 341.569 2004.96 341.569 2004.96H4182.05" stroke="#363435" stroke-width="9.60078" stroke-miterlimit="10" stroke-linecap="round" stroke-linejoin="round"></path></svg>